# MagicaVoxel @ Ephtracy

# group
o 

# material
mtllib rail_curved.mtl
usemtl palette

# normals
vn -1 0 0
vn 1 0 0
vn 0 0 1
vn 0 0 -1
vn 0 -1 0
vn 0 1 0

# texcoords
vt 0.0644531 0.5
vt 0.255859 0.5
vt 0.986328 0.5

# verts
v -0.8 0 0.7
v -0.8 0 0.5
v -0.8 0.2 0.7
v -0.8 0.2 0.5
v -0.6 0 -0.4
v -0.6 0 -0.6
v -0.6 0.2 0.8
v -0.6 0.2 0.7
v -0.6 0.2 0.5
v -0.6 0.2 -0.1
v -0.6 0.2 -0.4
v -0.6 0.2 -0.6
v -0.6 0.3 0.8
v -0.6 0.3 -0.1
v -0.5 0 -0.3
v -0.5 0 -0.4
v -0.5 0.2 -0.1
v -0.5 0.2 -0.3
v -0.5 0.2 -0.4
v -0.5 0.3 -0.1
v -0.5 0.3 -0.3
v -0.4 0 -0.2
v -0.4 0 -0.3
v -0.4 0.2 -0.2
v -0.4 0.2 -0.3
v -0.4 0.2 -0.4
v -0.4 0.3 -0.3
v -0.4 0.3 -0.4
v -0.3 0 -0.1
v -0.3 0 -0.2
v -0.3 0.2 -0.1
v -0.3 0.2 -0.2
v -0.3 0.2 -0.4
v -0.3 0.2 -0.5
v -0.3 0.3 -0.4
v -0.3 0.3 -0.5
v -0.2 0 0
v -0.2 0 -0.1
v -0.2 0.2 0
v -0.2 0.2 -0.1
v -0.1 0 0.1
v -0.1 0 0
v -0.1 0.2 0.1
v -0.1 0.2 0
v -0.1 0.2 -0.5
v -0.1 0.2 -0.6
v -0.1 0.3 -0.5
v -0.1 0.3 -0.6
v 0 0 0.2
v 0 0 0.1
v 0 0.2 0.2
v 0 0.2 0.1
v 0.1 0 0.3
v 0.1 0 0.2
v 0.1 0.2 0.3
v 0.1 0.2 0.2
v 0.2 0 0.4
v 0.2 0 0.3
v 0.2 0.2 0.4
v 0.2 0.2 0.3
v 0.3 0 0.5
v 0.3 0 0.4
v 0.3 0.2 0.5
v 0.3 0.2 0.4
v 0.5 0 0.3
v 0.5 0 -0.8
v 0.5 0.2 0.8
v 0.5 0.2 0.7
v 0.5 0.2 0.6
v 0.5 0.2 0.3
v 0.5 0.2 -0.5
v 0.5 0.2 -0.6
v 0.5 0.2 -0.8
v 0.5 0.3 0.8
v 0.5 0.3 0.6
v 0.6 0.2 0.6
v 0.6 0.2 0.5
v 0.6 0.3 0.6
v 0.6 0.3 0.5
v -0.5 0.2 0.8
v -0.5 0.2 0.7
v -0.5 0.2 0.5
v -0.5 0.2 0
v -0.5 0.3 0.8
v -0.5 0.3 0
v -0.4 0 -0.5
v -0.4 0 -0.6
v -0.4 0.2 0
v -0.4 0.2 -0.2
v -0.4 0.2 -0.3
v -0.4 0.2 -0.5
v -0.4 0.2 -0.6
v -0.4 0.3 0
v -0.4 0.3 -0.3
v -0.3 0 -0.4
v -0.3 0 -0.5
v -0.3 0.2 -0.3
v -0.3 0.2 -0.4
v -0.3 0.2 -0.5
v -0.3 0.3 -0.3
v -0.3 0.3 -0.4
v -0.2 0 -0.3
v -0.2 0 -0.4
v -0.2 0.2 -0.3
v -0.2 0.2 -0.4
v -0.1 0 -0.2
v -0.1 0 -0.3
v -0.1 0.2 -0.2
v -0.1 0.2 -0.3
v 0 0 -0.1
v 0 0 -0.2
v 0 0.2 -0.1
v 0 0.2 -0.2
v 0 0.2 -0.4
v 0 0.2 -0.5
v 0 0.3 -0.4
v 0 0.3 -0.5
v 0.1 0 0
v 0.1 0 -0.1
v 0.1 0.2 0
v 0.1 0.2 -0.1
v 0.2 0 0.1
v 0.2 0 0
v 0.2 0.2 0.1
v 0.2 0.2 0
v 0.3 0 0.2
v 0.3 0 0.1
v 0.3 0.2 0.2
v 0.3 0.2 0.1
v 0.4 0 0.3
v 0.4 0 0.2
v 0.4 0.2 0.3
v 0.4 0.2 0.2
v 0.6 0.2 0.8
v 0.6 0.2 0.7
v 0.6 0.2 0.6
v 0.6 0.3 0.8
v 0.6 0.3 0.6
v 0.7 0 0.7
v 0.7 0 -0.8
v 0.7 0.2 0.7
v 0.7 0.2 0.6
v 0.7 0.2 0.5
v 0.7 0.2 -0.5
v 0.7 0.2 -0.6
v 0.7 0.2 -0.8
v 0.8 0.2 0.6
v 0.8 0.2 0.5
v 0.8 0.2 -0.5
v 0.8 0.2 -0.6
v 0.8 0.3 0.6
v 0.8 0.3 0.5
v 0.8 0.3 -0.5
v 0.8 0.3 -0.6
v -0.6 0.2 0.8
v -0.6 0.3 0.8
v -0.5 0.2 0.8
v -0.5 0.3 0.8
v 0.5 0.2 0.8
v 0.5 0.3 0.8
v 0.6 0.2 0.8
v 0.6 0.3 0.8
v -0.8 0 0.7
v -0.8 0.2 0.7
v -0.6 0.2 0.7
v -0.5 0.2 0.7
v 0.5 0.2 0.7
v 0.6 0.2 0.7
v 0.7 0 0.7
v 0.7 0.2 0.7
v 0.6 0.2 0.6
v 0.6 0.3 0.6
v 0.7 0.2 0.6
v 0.8 0.2 0.6
v 0.8 0.3 0.6
v 0.2 0 0.4
v 0.2 0.2 0.4
v 0.3 0 0.4
v 0.3 0.2 0.4
v 0.1 0 0.3
v 0.1 0.2 0.3
v 0.2 0 0.3
v 0.2 0.2 0.3
v 0 0 0.2
v 0 0.2 0.2
v 0.1 0 0.2
v 0.1 0.2 0.2
v -0.1 0 0.1
v -0.1 0.2 0.1
v 0 0 0.1
v 0 0.2 0.1
v -0.5 0.2 0
v -0.5 0.3 0
v -0.4 0.2 0
v -0.4 0.3 0
v -0.2 0 0
v -0.2 0.2 0
v -0.1 0 0
v -0.1 0.2 0
v -0.3 0 -0.1
v -0.3 0.2 -0.1
v -0.2 0 -0.1
v -0.2 0.2 -0.1
v -0.4 0 -0.2
v -0.4 0.2 -0.2
v -0.3 0 -0.2
v -0.3 0.2 -0.2
v -0.5 0 -0.3
v -0.5 0.2 -0.3
v -0.4 0 -0.3
v -0.4 0.2 -0.3
v -0.4 0.3 -0.3
v -0.3 0.2 -0.3
v -0.3 0.3 -0.3
v -0.6 0 -0.4
v -0.6 0.2 -0.4
v -0.5 0 -0.4
v -0.5 0.2 -0.4
v -0.3 0.2 -0.4
v -0.3 0.3 -0.4
v -0.2 0.2 -0.4
v 0 0.2 -0.4
v 0 0.3 -0.4
v 0 0.2 -0.5
v 0 0.3 -0.5
v 0.5 0.2 -0.5
v 0.7 0.2 -0.5
v 0.8 0.2 -0.5
v 0.8 0.3 -0.5
v 0.5 0.2 0.6
v 0.5 0.3 0.6
v 0.6 0.2 0.6
v 0.6 0.3 0.6
v -0.8 0 0.5
v -0.8 0.2 0.5
v -0.6 0.2 0.5
v -0.5 0.2 0.5
v 0.3 0 0.5
v 0.3 0.2 0.5
v 0.6 0.2 0.5
v 0.6 0.3 0.5
v 0.7 0.2 0.5
v 0.8 0.2 0.5
v 0.8 0.3 0.5
v 0.4 0 0.3
v 0.4 0.2 0.3
v 0.5 0 0.3
v 0.5 0.2 0.3
v 0.3 0 0.2
v 0.3 0.2 0.2
v 0.4 0 0.2
v 0.4 0.2 0.2
v 0.2 0 0.1
v 0.2 0.2 0.1
v 0.3 0 0.1
v 0.3 0.2 0.1
v 0.1 0 0
v 0.1 0.2 0
v 0.2 0 0
v 0.2 0.2 0
v -0.6 0.2 -0.1
v -0.6 0.3 -0.1
v -0.5 0.2 -0.1
v -0.5 0.3 -0.1
v 0 0 -0.1
v 0 0.2 -0.1
v 0.1 0 -0.1
v 0.1 0.2 -0.1
v -0.1 0 -0.2
v -0.1 0.2 -0.2
v 0 0 -0.2
v 0 0.2 -0.2
v -0.5 0.2 -0.3
v -0.5 0.3 -0.3
v -0.4 0.2 -0.3
v -0.4 0.3 -0.3
v -0.2 0 -0.3
v -0.2 0.2 -0.3
v -0.1 0 -0.3
v -0.1 0.2 -0.3
v -0.4 0.2 -0.4
v -0.4 0.3 -0.4
v -0.3 0 -0.4
v -0.3 0.2 -0.4
v -0.3 0.3 -0.4
v -0.2 0 -0.4
v -0.2 0.2 -0.4
v -0.4 0 -0.5
v -0.4 0.2 -0.5
v -0.3 0 -0.5
v -0.3 0.2 -0.5
v -0.3 0.3 -0.5
v -0.1 0.2 -0.5
v -0.1 0.3 -0.5
v -0.6 0 -0.6
v -0.6 0.2 -0.6
v -0.4 0 -0.6
v -0.4 0.2 -0.6
v -0.1 0.2 -0.6
v -0.1 0.3 -0.6
v 0.5 0.2 -0.6
v 0.7 0.2 -0.6
v 0.8 0.2 -0.6
v 0.8 0.3 -0.6
v 0.5 0 -0.8
v 0.5 0.2 -0.8
v 0.7 0 -0.8
v 0.7 0.2 -0.8
v -0.8 0 0.7
v 0.7 0 0.7
v -0.8 0 0.5
v 0.3 0 0.5
v 0.2 0 0.4
v 0.3 0 0.4
v 0.4 0 0.4
v 0.1 0 0.3
v 0.2 0 0.3
v 0.3 0 0.3
v 0.4 0 0.3
v 0.5 0 0.3
v 0 0 0.2
v 0.1 0 0.2
v 0.2 0 0.2
v 0.3 0 0.2
v 0.4 0 0.2
v -0.1 0 0.1
v 0 0 0.1
v 0.1 0 0.1
v 0.2 0 0.1
v 0.3 0 0.1
v -0.2 0 0
v -0.1 0 0
v 0.1 0 0
v 0.2 0 0
v -0.3 0 -0.1
v -0.2 0 -0.1
v -0.1 0 -0.1
v 0 0 -0.1
v 0.1 0 -0.1
v -0.4 0 -0.2
v -0.3 0 -0.2
v -0.2 0 -0.2
v -0.1 0 -0.2
v 0 0 -0.2
v -0.5 0 -0.3
v -0.4 0 -0.3
v -0.3 0 -0.3
v -0.2 0 -0.3
v -0.1 0 -0.3
v -0.6 0 -0.4
v -0.5 0 -0.4
v -0.4 0 -0.4
v -0.3 0 -0.4
v -0.2 0 -0.4
v -0.4 0 -0.5
v -0.3 0 -0.5
v -0.6 0 -0.6
v -0.4 0 -0.6
v 0.5 0 -0.8
v 0.7 0 -0.8
v -0.6 0.2 0.8
v -0.5 0.2 0.8
v 0.5 0.2 0.8
v 0.6 0.2 0.8
v -0.6 0.2 0.7
v -0.5 0.2 0.7
v 0.5 0.2 0.7
v 0.6 0.2 0.7
v 0.7 0.2 0.6
v 0.8 0.2 0.6
v -0.6 0.2 0.5
v -0.5 0.2 0.5
v 0.7 0.2 0.5
v 0.8 0.2 0.5
v -0.5 0.2 0
v -0.4 0.2 0
v -0.6 0.2 -0.1
v -0.5 0.2 -0.1
v -0.4 0.2 -0.2
v -0.5 0.2 -0.3
v -0.4 0.2 -0.3
v -0.3 0.2 -0.4
v -0.2 0.2 -0.4
v 0 0.2 -0.4
v -0.3 0.2 -0.5
v -0.1 0.2 -0.5
v 0 0.2 -0.5
v 0.5 0.2 -0.5
v 0.7 0.2 -0.5
v 0.8 0.2 -0.5
v -0.1 0.2 -0.6
v 0.5 0.2 -0.6
v 0.7 0.2 -0.6
v 0.8 0.2 -0.6
v -0.8 0.2 0.7
v -0.6 0.2 0.7
v -0.5 0.2 0.7
v 0.5 0.2 0.7
v 0.6 0.2 0.7
v 0.7 0.2 0.7
v 0.5 0.2 0.6
v 0.6 0.2 0.6
v 0.7 0.2 0.6
v -0.8 0.2 0.5
v -0.6 0.2 0.5
v -0.5 0.2 0.5
v 0.3 0.2 0.5
v 0.6 0.2 0.5
v 0.7 0.2 0.5
v 0.2 0.2 0.4
v 0.3 0.2 0.4
v 0.1 0.2 0.3
v 0.2 0.2 0.3
v 0.4 0.2 0.3
v 0.5 0.2 0.3
v 0 0.2 0.2
v 0.1 0.2 0.2
v 0.3 0.2 0.2
v 0.4 0.2 0.2
v -0.1 0.2 0.1
v 0 0.2 0.1
v 0.2 0.2 0.1
v 0.3 0.2 0.1
v -0.2 0.2 0
v -0.1 0.2 0
v 0.1 0.2 0
v 0.2 0.2 0
v -0.3 0.2 -0.1
v -0.2 0.2 -0.1
v 0 0.2 -0.1
v 0.1 0.2 -0.1
v -0.4 0.2 -0.2
v -0.3 0.2 -0.2
v -0.1 0.2 -0.2
v 0 0.2 -0.2
v -0.5 0.2 -0.3
v -0.4 0.2 -0.3
v -0.3 0.2 -0.3
v -0.2 0.2 -0.3
v -0.1 0.2 -0.3
v -0.6 0.2 -0.4
v -0.5 0.2 -0.4
v -0.4 0.2 -0.4
v -0.3 0.2 -0.4
v -0.2 0.2 -0.4
v -0.4 0.2 -0.5
v -0.3 0.2 -0.5
v 0.5 0.2 -0.5
v 0.7 0.2 -0.5
v -0.6 0.2 -0.6
v -0.4 0.2 -0.6
v 0.5 0.2 -0.6
v 0.7 0.2 -0.6
v 0.5 0.2 -0.8
v 0.7 0.2 -0.8
v -0.6 0.3 0.8
v -0.5 0.3 0.8
v 0.5 0.3 0.8
v 0.6 0.3 0.8
v 0.5 0.3 0.6
v 0.6 0.3 0.6
v 0.8 0.3 0.6
v 0.6 0.3 0.5
v 0.8 0.3 0.5
v -0.5 0.3 0
v -0.4 0.3 0
v -0.6 0.3 -0.1
v -0.5 0.3 -0.1
v -0.5 0.3 -0.3
v -0.4 0.3 -0.3
v -0.3 0.3 -0.3
v -0.4 0.3 -0.4
v -0.3 0.3 -0.4
v 0 0.3 -0.4
v -0.3 0.3 -0.5
v -0.1 0.3 -0.5
v 0 0.3 -0.5
v 0.8 0.3 -0.5
v -0.1 0.3 -0.6
v 0.8 0.3 -0.6

# faces
f 3/2/1 2/2/1 1/2/1
f 4/2/1 2/2/1 3/2/1
f 11/2/1 6/2/1 5/2/1
f 12/2/1 6/2/1 11/2/1
f 13/3/1 10/3/1 9/3/1
f 13/3/1 8/3/1 7/3/1
f 13/3/1 9/3/1 8/3/1
f 14/3/1 10/3/1 13/3/1
f 18/2/1 16/2/1 15/2/1
f 19/2/1 16/2/1 18/2/1
f 20/3/1 18/3/1 17/3/1
f 21/3/1 18/3/1 20/3/1
f 24/2/1 23/2/1 22/2/1
f 25/2/1 23/2/1 24/2/1
f 27/3/1 26/3/1 25/3/1
f 28/3/1 26/3/1 27/3/1
f 31/2/1 30/2/1 29/2/1
f 32/2/1 30/2/1 31/2/1
f 35/3/1 34/3/1 33/3/1
f 36/3/1 34/3/1 35/3/1
f 39/2/1 38/2/1 37/2/1
f 40/2/1 38/2/1 39/2/1
f 43/2/1 42/2/1 41/2/1
f 44/2/1 42/2/1 43/2/1
f 47/3/1 46/3/1 45/3/1
f 48/3/1 46/3/1 47/3/1
f 51/2/1 50/2/1 49/2/1
f 52/2/1 50/2/1 51/2/1
f 55/2/1 54/2/1 53/2/1
f 56/2/1 54/2/1 55/2/1
f 59/2/1 58/2/1 57/2/1
f 60/2/1 58/2/1 59/2/1
f 63/2/1 62/2/1 61/2/1
f 64/2/1 62/2/1 63/2/1
f 70/2/1 66/2/1 65/2/1
f 71/2/1 66/2/1 70/2/1
f 72/2/1 66/2/1 71/2/1
f 73/2/1 66/2/1 72/2/1
f 74/3/1 69/3/1 68/3/1
f 74/3/1 68/3/1 67/3/1
f 75/3/1 69/3/1 74/3/1
f 78/3/1 77/3/1 76/3/1
f 79/3/1 77/3/1 78/3/1
f 80/3/2 81/3/2 84/3/2
f 82/3/2 83/3/2 84/3/2
f 81/3/2 82/3/2 84/3/2
f 84/3/2 83/3/2 85/3/2
f 86/2/2 87/2/2 91/2/2
f 91/2/2 87/2/2 92/2/2
f 89/3/2 90/3/2 93/3/2
f 88/3/2 89/3/2 93/3/2
f 93/3/2 90/3/2 94/3/2
f 95/2/2 96/2/2 98/2/2
f 98/2/2 96/2/2 99/2/2
f 97/3/2 98/3/2 100/3/2
f 100/3/2 98/3/2 101/3/2
f 102/2/2 103/2/2 104/2/2
f 104/2/2 103/2/2 105/2/2
f 106/2/2 107/2/2 108/2/2
f 108/2/2 107/2/2 109/2/2
f 110/2/2 111/2/2 112/2/2
f 112/2/2 111/2/2 113/2/2
f 114/3/2 115/3/2 116/3/2
f 116/3/2 115/3/2 117/3/2
f 118/2/2 119/2/2 120/2/2
f 120/2/2 119/2/2 121/2/2
f 122/2/2 123/2/2 124/2/2
f 124/2/2 123/2/2 125/2/2
f 126/2/2 127/2/2 128/2/2
f 128/2/2 127/2/2 129/2/2
f 130/2/2 131/2/2 132/2/2
f 132/2/2 131/2/2 133/2/2
f 134/3/2 135/3/2 137/3/2
f 135/3/2 136/3/2 137/3/2
f 137/3/2 136/3/2 138/3/2
f 139/2/2 140/2/2 141/2/2
f 141/2/2 140/2/2 142/2/2
f 142/2/2 140/2/2 143/2/2
f 143/2/2 140/2/2 144/2/2
f 144/2/2 140/2/2 145/2/2
f 145/2/2 140/2/2 146/2/2
f 147/3/2 148/3/2 151/3/2
f 151/3/2 148/3/2 152/3/2
f 149/3/2 150/3/2 153/3/2
f 153/3/2 150/3/2 154/3/2
f 157/3/3 156/3/3 155/3/3
f 158/3/3 156/3/3 157/3/3
f 161/3/3 160/3/3 159/3/3
f 162/3/3 160/3/3 161/3/3
f 165/2/3 164/2/3 163/2/3
f 166/2/3 165/2/3 163/2/3
f 167/2/3 166/2/3 163/2/3
f 168/2/3 167/2/3 163/2/3
f 169/2/3 168/2/3 163/2/3
f 170/2/3 168/2/3 169/2/3
f 173/3/3 172/3/3 171/3/3
f 174/3/3 172/3/3 173/3/3
f 175/3/3 172/3/3 174/3/3
f 178/2/3 177/2/3 176/2/3
f 179/2/3 177/2/3 178/2/3
f 182/2/3 181/2/3 180/2/3
f 183/2/3 181/2/3 182/2/3
f 186/2/3 185/2/3 184/2/3
f 187/2/3 185/2/3 186/2/3
f 190/2/3 189/2/3 188/2/3
f 191/2/3 189/2/3 190/2/3
f 194/3/3 193/3/3 192/3/3
f 195/3/3 193/3/3 194/3/3
f 198/2/3 197/2/3 196/2/3
f 199/2/3 197/2/3 198/2/3
f 202/2/3 201/2/3 200/2/3
f 203/2/3 201/2/3 202/2/3
f 206/2/3 205/2/3 204/2/3
f 207/2/3 205/2/3 206/2/3
f 210/2/3 209/2/3 208/2/3
f 211/2/3 209/2/3 210/2/3
f 213/3/3 212/3/3 211/3/3
f 214/3/3 212/3/3 213/3/3
f 217/2/3 216/2/3 215/2/3
f 218/2/3 216/2/3 217/2/3
f 221/3/3 220/3/3 219/3/3
f 222/3/3 220/3/3 221/3/3
f 223/3/3 220/3/3 222/3/3
f 226/3/3 225/3/3 224/3/3
f 227/3/3 225/3/3 226/3/3
f 228/3/3 225/3/3 227/3/3
f 229/3/3 225/3/3 228/3/3
f 230/3/4 231/3/4 232/3/4
f 232/3/4 231/3/4 233/3/4
f 234/2/4 235/2/4 236/2/4
f 234/2/4 236/2/4 237/2/4
f 234/2/4 237/2/4 238/2/4
f 238/2/4 237/2/4 239/2/4
f 240/3/4 241/3/4 242/3/4
f 242/3/4 241/3/4 243/3/4
f 243/3/4 241/3/4 244/3/4
f 245/2/4 246/2/4 247/2/4
f 247/2/4 246/2/4 248/2/4
f 249/2/4 250/2/4 251/2/4
f 251/2/4 250/2/4 252/2/4
f 253/2/4 254/2/4 255/2/4
f 255/2/4 254/2/4 256/2/4
f 257/2/4 258/2/4 259/2/4
f 259/2/4 258/2/4 260/2/4
f 261/3/4 262/3/4 263/3/4
f 263/3/4 262/3/4 264/3/4
f 265/2/4 266/2/4 267/2/4
f 267/2/4 266/2/4 268/2/4
f 269/2/4 270/2/4 271/2/4
f 271/2/4 270/2/4 272/2/4
f 273/3/4 274/3/4 275/3/4
f 275/3/4 274/3/4 276/3/4
f 277/2/4 278/2/4 279/2/4
f 279/2/4 278/2/4 280/2/4
f 281/3/4 282/3/4 284/3/4
f 284/3/4 282/3/4 285/3/4
f 283/2/4 284/2/4 286/2/4
f 286/2/4 284/2/4 287/2/4
f 288/2/4 289/2/4 290/2/4
f 290/2/4 289/2/4 291/2/4
f 291/3/4 292/3/4 293/3/4
f 293/3/4 292/3/4 294/3/4
f 295/2/4 296/2/4 297/2/4
f 297/2/4 296/2/4 298/2/4
f 299/3/4 300/3/4 301/3/4
f 301/3/4 300/3/4 302/3/4
f 302/3/4 300/3/4 303/3/4
f 303/3/4 300/3/4 304/3/4
f 305/2/4 306/2/4 307/2/4
f 307/2/4 306/2/4 308/2/4
f 311/2/5 310/2/5 309/2/5
f 312/2/5 310/2/5 311/2/5
f 314/2/5 310/2/5 312/2/5
f 315/2/5 310/2/5 314/2/5
f 317/2/5 314/2/5 313/2/5
f 318/1/5 315/1/5 314/1/5
f 318/2/5 314/2/5 317/2/5
f 319/2/5 310/2/5 315/2/5
f 319/1/5 315/1/5 318/1/5
f 320/2/5 310/2/5 319/2/5
f 322/2/5 317/2/5 316/2/5
f 323/1/5 318/1/5 317/1/5
f 323/2/5 317/2/5 322/2/5
f 324/2/5 319/2/5 318/2/5
f 324/1/5 318/1/5 323/1/5
f 325/2/5 319/2/5 324/2/5
f 327/2/5 322/2/5 321/2/5
f 328/1/5 323/1/5 322/1/5
f 328/2/5 322/2/5 327/2/5
f 329/2/5 324/2/5 323/2/5
f 329/1/5 323/1/5 328/1/5
f 330/2/5 324/2/5 329/2/5
f 332/2/5 327/2/5 326/2/5
f 332/2/5 328/2/5 327/2/5
f 332/2/5 329/2/5 328/2/5
f 333/2/5 329/2/5 332/2/5
f 334/2/5 329/2/5 333/2/5
f 336/2/5 332/2/5 331/2/5
f 336/2/5 333/2/5 332/2/5
f 337/2/5 333/2/5 336/2/5
f 338/2/5 333/2/5 337/2/5
f 339/2/5 333/2/5 338/2/5
f 341/2/5 336/2/5 335/2/5
f 342/1/5 337/1/5 336/1/5
f 342/2/5 336/2/5 341/2/5
f 343/2/5 338/2/5 337/2/5
f 343/1/5 337/1/5 342/1/5
f 344/2/5 338/2/5 343/2/5
f 346/2/5 341/2/5 340/2/5
f 347/1/5 342/1/5 341/1/5
f 347/2/5 341/2/5 346/2/5
f 348/2/5 343/2/5 342/2/5
f 348/1/5 342/1/5 347/1/5
f 349/2/5 343/2/5 348/2/5
f 351/2/5 346/2/5 345/2/5
f 352/1/5 347/1/5 346/1/5
f 352/2/5 346/2/5 351/2/5
f 353/2/5 348/2/5 347/2/5
f 353/1/5 347/1/5 352/1/5
f 354/2/5 348/2/5 353/2/5
f 355/2/5 351/2/5 350/2/5
f 355/2/5 352/2/5 351/2/5
f 355/2/5 353/2/5 352/2/5
f 356/2/5 353/2/5 355/2/5
f 357/2/5 355/2/5 350/2/5
f 358/2/5 355/2/5 357/2/5
f 359/2/5 310/2/5 320/2/5
f 360/2/5 310/2/5 359/2/5
f 365/3/5 362/3/5 361/3/5
f 366/3/5 362/3/5 365/3/5
f 367/3/5 364/3/5 363/3/5
f 368/3/5 364/3/5 367/3/5
f 373/3/5 370/3/5 369/3/5
f 374/3/5 370/3/5 373/3/5
f 375/3/5 372/3/5 371/3/5
f 377/3/5 375/3/5 371/3/5
f 377/3/5 376/3/5 375/3/5
f 378/3/5 376/3/5 377/3/5
f 379/3/5 376/3/5 378/3/5
f 380/3/5 379/3/5 378/3/5
f 381/3/5 379/3/5 380/3/5
f 385/3/5 383/3/5 382/3/5
f 385/3/5 384/3/5 383/3/5
f 386/3/5 384/3/5 385/3/5
f 387/3/5 384/3/5 386/3/5
f 391/3/5 387/3/5 386/3/5
f 391/3/5 388/3/5 387/3/5
f 392/3/5 388/3/5 391/3/5
f 393/3/5 390/3/5 389/3/5
f 394/3/5 390/3/5 393/3/5
f 397/2/6 398/2/6 401/2/6
f 399/2/6 400/2/6 402/2/6
f 402/2/6 400/2/6 403/2/6
f 395/2/6 396/2/6 404/2/6
f 404/2/6 396/2/6 405/2/6
f 397/2/6 401/2/6 406/2/6
f 401/2/6 402/2/6 406/2/6
f 406/2/6 402/2/6 407/2/6
f 407/2/6 402/2/6 408/2/6
f 408/2/6 409/2/6 411/2/6
f 407/2/6 408/2/6 411/2/6
f 410/2/6 411/2/6 413/2/6
f 411/2/6 409/2/6 414/2/6
f 413/2/6 411/2/6 414/2/6
f 414/2/6 409/2/6 415/2/6
f 412/2/6 413/2/6 417/2/6
f 413/2/6 414/2/6 417/2/6
f 417/2/6 414/2/6 418/2/6
f 418/2/6 414/2/6 419/2/6
f 416/2/6 417/2/6 421/2/6
f 417/2/6 418/2/6 421/2/6
f 421/2/6 418/2/6 422/2/6
f 422/2/6 418/2/6 423/2/6
f 420/2/6 421/2/6 425/2/6
f 421/2/6 422/2/6 425/2/6
f 425/2/6 422/2/6 426/2/6
f 426/2/6 422/2/6 427/2/6
f 424/2/6 425/2/6 429/2/6
f 425/2/6 426/2/6 429/2/6
f 429/2/6 426/2/6 430/2/6
f 430/2/6 426/2/6 431/2/6
f 428/2/6 429/2/6 433/2/6
f 429/2/6 430/2/6 433/2/6
f 433/2/6 430/2/6 434/2/6
f 434/2/6 430/2/6 435/2/6
f 432/2/6 433/2/6 437/2/6
f 433/2/6 434/2/6 437/2/6
f 437/2/6 434/2/6 438/2/6
f 438/2/6 434/2/6 439/2/6
f 439/2/6 434/2/6 440/2/6
f 436/2/6 437/2/6 442/2/6
f 442/2/6 437/2/6 443/2/6
f 438/2/6 439/2/6 444/2/6
f 444/2/6 439/2/6 445/2/6
f 442/2/6 443/2/6 446/2/6
f 441/2/6 442/2/6 446/2/6
f 443/2/6 444/2/6 446/2/6
f 446/2/6 444/2/6 447/2/6
f 415/2/6 409/2/6 448/2/6
f 448/2/6 409/2/6 449/2/6
f 441/2/6 446/2/6 450/2/6
f 450/2/6 446/2/6 451/2/6
f 452/2/6 453/2/6 454/2/6
f 454/2/6 453/2/6 455/2/6
f 458/3/6 459/3/6 460/3/6
f 460/3/6 459/3/6 461/3/6
f 461/3/6 462/3/6 463/3/6
f 463/3/6 462/3/6 464/3/6
f 456/3/6 457/3/6 465/3/6
f 456/3/6 465/3/6 467/3/6
f 465/3/6 466/3/6 467/3/6
f 467/3/6 466/3/6 468/3/6
f 468/3/6 466/3/6 469/3/6
f 469/3/6 466/3/6 470/3/6
f 470/3/6 471/3/6 472/3/6
f 472/3/6 471/3/6 473/3/6
f 473/3/6 474/3/6 475/3/6
f 475/3/6 474/3/6 476/3/6
f 476/3/6 474/3/6 477/3/6
f 477/3/6 478/3/6 479/3/6
f 476/3/6 477/3/6 479/3/6
f 479/3/6 478/3/6 480/3/6
