# MagicaVoxel @ Ephtracy

# group
o 

# material
mtllib train_platformmodule.mtl
usemtl palette

# normals
vn -1 0 0
vn 1 0 0
vn 0 0 1
vn 0 0 -1
vn 0 -1 0
vn 0 1 0

# texcoords
vt 0.146484 0.5
vt 0.373047 0.5
vt 0.560547 0.5
vt 0.990234 0.5

# verts
v -1.2 0.5 0.5
v -1.2 0.5 0.4
v -1.2 0.5 -0.4
v -1.2 0.5 -0.5
v -1.2 0.6 0.5
v -1.2 0.6 0.4
v -1.2 0.6 -0.4
v -1.2 0.6 -0.5
v -1.1 0.3 0.5
v -1.1 0.3 0.4
v -1.1 0.3 -0.4
v -1.1 0.3 -0.5
v -1.1 0.4 0.6
v -1.1 0.4 0.5
v -1.1 0.4 -0.5
v -1.1 0.4 -0.6
v -1.1 0.5 0.5
v -1.1 0.5 0.4
v -1.1 0.5 -0.4
v -1.1 0.5 -0.5
v -1.1 0.6 0.6
v -1.1 0.6 0.5
v -1.1 0.6 0.4
v -1.1 0.6 -0.4
v -1.1 0.6 -0.5
v -1.1 0.6 -0.6
v -1 0.2 0.5
v -1 0.2 0.4
v -1 0.2 -0.4
v -1 0.2 -0.5
v -1 0.3 0.5
v -1 0.3 0.4
v -1 0.3 -0.4
v -1 0.3 -0.5
v -1 0.4 0.3
v -1 0.4 -0.3
v -1 0.5 0.3
v -1 0.5 -0.3
v -0.9 0.1 0.5
v -0.9 0.1 0.4
v -0.9 0.1 -0.4
v -0.9 0.1 -0.5
v -0.9 0.2 0.5
v -0.9 0.2 0.4
v -0.9 0.2 -0.4
v -0.9 0.2 -0.5
v -0.8 0 0.5
v -0.8 0 0.4
v -0.8 0 -0.4
v -0.8 0 -0.5
v -0.8 0.1 0.5
v -0.8 0.1 0.4
v -0.8 0.1 -0.4
v -0.8 0.1 -0.5
v -0.7 0 0.4
v -0.7 0 -0.4
v -0.7 0.1 0.4
v -0.7 0.1 -0.4
v 0.6 0.1 0.5
v 0.6 0.1 0.4
v 0.6 0.1 -0.4
v 0.6 0.1 -0.5
v 0.6 0.2 0.5
v 0.6 0.2 0.4
v 0.6 0.2 -0.4
v 0.6 0.2 -0.5
v 0.7 0.2 0.5
v 0.7 0.2 0.4
v 0.7 0.2 -0.4
v 0.7 0.2 -0.5
v 0.7 0.3 0.5
v 0.7 0.3 0.4
v 0.7 0.3 -0.4
v 0.7 0.3 -0.5
v 0.8 0.3 0.5
v 0.8 0.3 0.4
v 0.8 0.3 -0.4
v 0.8 0.3 -0.5
v 0.8 0.4 0.5
v 0.8 0.4 0.4
v 0.8 0.4 -0.4
v 0.8 0.4 -0.5
v 0.9 0.4 0.6
v 0.9 0.4 0.5
v 0.9 0.4 0.4
v 0.9 0.4 0.3
v 0.9 0.4 -0.3
v 0.9 0.4 -0.4
v 0.9 0.4 -0.5
v 0.9 0.4 -0.6
v 0.9 0.5 0.5
v 0.9 0.5 0.4
v 0.9 0.5 0.3
v 0.9 0.5 0.1
v 0.9 0.5 -0.1
v 0.9 0.5 -0.3
v 0.9 0.5 -0.4
v 0.9 0.5 -0.5
v 0.9 0.6 0.6
v 0.9 0.6 0.1
v 0.9 0.6 -0.1
v 0.9 0.6 -0.6
v -1 0.4 0.6
v -1 0.4 0.5
v -1 0.4 0.4
v -1 0.4 -0.4
v -1 0.4 -0.5
v -1 0.4 -0.6
v -1 0.5 0.6
v -1 0.5 0.5
v -1 0.5 0.4
v -1 0.5 0.3
v -1 0.5 -0.3
v -1 0.5 -0.4
v -1 0.5 -0.5
v -1 0.5 -0.6
v -1 0.6 0.5
v -1 0.6 0.3
v -1 0.6 -0.3
v -1 0.6 -0.5
v -0.9 0.3 0.5
v -0.9 0.3 0.4
v -0.9 0.3 -0.4
v -0.9 0.3 -0.5
v -0.9 0.4 0.5
v -0.9 0.4 0.4
v -0.9 0.4 0.3
v -0.9 0.4 -0.3
v -0.9 0.4 -0.4
v -0.9 0.4 -0.5
v -0.9 0.5 0.6
v -0.9 0.5 0.5
v -0.9 0.5 0.1
v -0.9 0.5 -0.1
v -0.9 0.5 -0.5
v -0.9 0.5 -0.6
v -0.9 0.6 0.6
v -0.9 0.6 0.5
v -0.9 0.6 0.3
v -0.9 0.6 0.1
v -0.9 0.6 -0.1
v -0.9 0.6 -0.3
v -0.9 0.6 -0.5
v -0.9 0.6 -0.6
v -0.8 0.2 0.5
v -0.8 0.2 0.4
v -0.8 0.2 -0.4
v -0.8 0.2 -0.5
v -0.8 0.3 0.5
v -0.8 0.3 0.4
v -0.8 0.3 -0.4
v -0.8 0.3 -0.5
v -0.7 0.1 0.5
v -0.7 0.1 0.4
v -0.7 0.1 -0.4
v -0.7 0.1 -0.5
v -0.7 0.2 0.5
v -0.7 0.2 0.4
v -0.7 0.2 -0.4
v -0.7 0.2 -0.5
v 0.6 0 0.4
v 0.6 0 -0.4
v 0.6 0.1 0.4
v 0.6 0.1 -0.4
v 0.7 0 0.5
v 0.7 0 0.4
v 0.7 0 -0.4
v 0.7 0 -0.5
v 0.7 0.1 0.5
v 0.7 0.1 0.4
v 0.7 0.1 -0.4
v 0.7 0.1 -0.5
v 0.8 0.1 0.5
v 0.8 0.1 0.4
v 0.8 0.1 -0.4
v 0.8 0.1 -0.5
v 0.8 0.2 0.5
v 0.8 0.2 0.4
v 0.8 0.2 -0.4
v 0.8 0.2 -0.5
v 0.9 0.2 0.5
v 0.9 0.2 0.4
v 0.9 0.2 -0.4
v 0.9 0.2 -0.5
v 0.9 0.3 0.5
v 0.9 0.3 0.4
v 0.9 0.3 -0.4
v 0.9 0.3 -0.5
v 1 0.3 0.5
v 1 0.3 0.4
v 1 0.3 -0.4
v 1 0.3 -0.5
v 1 0.4 0.6
v 1 0.4 0.5
v 1 0.4 0.3
v 1 0.4 -0.3
v 1 0.4 -0.5
v 1 0.4 -0.6
v 1 0.5 0.5
v 1 0.5 0.4
v 1 0.5 0.3
v 1 0.5 0.1
v 1 0.5 -0.1
v 1 0.5 -0.3
v 1 0.5 -0.4
v 1 0.5 -0.5
v 1 0.6 0.6
v 1 0.6 0.5
v 1 0.6 0.4
v 1 0.6 0.1
v 1 0.6 -0.1
v 1 0.6 -0.4
v 1 0.6 -0.5
v 1 0.6 -0.6
v 1.1 0.5 0.5
v 1.1 0.5 0.4
v 1.1 0.5 -0.4
v 1.1 0.5 -0.5
v 1.1 0.6 0.5
v 1.1 0.6 0.4
v 1.1 0.6 -0.4
v 1.1 0.6 -0.5
v -1.1 0.4 0.6
v -1.1 0.6 0.6
v -1 0.4 0.6
v -1 0.5 0.6
v -0.9 0.5 0.6
v -0.9 0.6 0.6
v 0.9 0.4 0.6
v 0.9 0.6 0.6
v 1 0.4 0.6
v 1 0.6 0.6
v -1.2 0.5 0.5
v -1.2 0.6 0.5
v -1.1 0.3 0.5
v -1.1 0.4 0.5
v -1.1 0.5 0.5
v -1.1 0.6 0.5
v -1 0.2 0.5
v -1 0.3 0.5
v -1 0.4 0.5
v -0.9 0.1 0.5
v -0.9 0.2 0.5
v -0.9 0.3 0.5
v -0.9 0.4 0.5
v -0.8 0 0.5
v -0.8 0.1 0.5
v -0.8 0.2 0.5
v -0.8 0.3 0.5
v -0.7 0.1 0.5
v -0.7 0.2 0.5
v 0.6 0.1 0.5
v 0.6 0.2 0.5
v 0.7 0 0.5
v 0.7 0.1 0.5
v 0.7 0.2 0.5
v 0.7 0.3 0.5
v 0.8 0.1 0.5
v 0.8 0.2 0.5
v 0.8 0.3 0.5
v 0.8 0.4 0.5
v 0.9 0.2 0.5
v 0.9 0.3 0.5
v 0.9 0.4 0.5
v 1 0.3 0.5
v 1 0.4 0.5
v 1 0.5 0.5
v 1 0.6 0.5
v 1.1 0.5 0.5
v 1.1 0.6 0.5
v -1 0.4 0.3
v -1 0.5 0.3
v -1 0.6 0.3
v -0.9 0.4 0.3
v -0.9 0.6 0.3
v 0.9 0.4 0.3
v 0.9 0.5 0.3
v 1 0.4 0.3
v 1 0.5 0.3
v -1.2 0.5 -0.4
v -1.2 0.6 -0.4
v -1.1 0.3 -0.4
v -1.1 0.5 -0.4
v -1.1 0.6 -0.4
v -1 0.2 -0.4
v -1 0.3 -0.4
v -1 0.4 -0.4
v -1 0.5 -0.4
v -0.9 0.1 -0.4
v -0.9 0.2 -0.4
v -0.9 0.3 -0.4
v -0.9 0.4 -0.4
v -0.8 0 -0.4
v -0.8 0.1 -0.4
v -0.8 0.2 -0.4
v -0.8 0.3 -0.4
v -0.7 0 -0.4
v -0.7 0.1 -0.4
v -0.7 0.2 -0.4
v 0.6 0 -0.4
v 0.6 0.1 -0.4
v 0.6 0.2 -0.4
v 0.7 0 -0.4
v 0.7 0.1 -0.4
v 0.7 0.2 -0.4
v 0.7 0.3 -0.4
v 0.8 0.1 -0.4
v 0.8 0.2 -0.4
v 0.8 0.3 -0.4
v 0.8 0.4 -0.4
v 0.9 0.2 -0.4
v 0.9 0.3 -0.4
v 0.9 0.4 -0.4
v 0.9 0.5 -0.4
v 1 0.3 -0.4
v 1 0.5 -0.4
v 1 0.6 -0.4
v 1.1 0.5 -0.4
v 1.1 0.6 -0.4
v -1 0.5 -0.5
v -1 0.6 -0.5
v -0.9 0.5 -0.5
v -0.9 0.6 -0.5
v -1 0.5 0.5
v -1 0.6 0.5
v -0.9 0.5 0.5
v -0.9 0.6 0.5
v -1.2 0.5 0.4
v -1.2 0.6 0.4
v -1.1 0.3 0.4
v -1.1 0.5 0.4
v -1.1 0.6 0.4
v -1 0.2 0.4
v -1 0.3 0.4
v -1 0.4 0.4
v -1 0.5 0.4
v -0.9 0.1 0.4
v -0.9 0.2 0.4
v -0.9 0.3 0.4
v -0.9 0.4 0.4
v -0.8 0 0.4
v -0.8 0.1 0.4
v -0.8 0.2 0.4
v -0.8 0.3 0.4
v -0.7 0 0.4
v -0.7 0.1 0.4
v -0.7 0.2 0.4
v 0.6 0 0.4
v 0.6 0.1 0.4
v 0.6 0.2 0.4
v 0.7 0 0.4
v 0.7 0.1 0.4
v 0.7 0.2 0.4
v 0.7 0.3 0.4
v 0.8 0.1 0.4
v 0.8 0.2 0.4
v 0.8 0.3 0.4
v 0.8 0.4 0.4
v 0.9 0.2 0.4
v 0.9 0.3 0.4
v 0.9 0.4 0.4
v 0.9 0.5 0.4
v 1 0.3 0.4
v 1 0.5 0.4
v 1 0.6 0.4
v 1.1 0.5 0.4
v 1.1 0.6 0.4
v -1 0.4 -0.3
v -1 0.5 -0.3
v -1 0.6 -0.3
v -0.9 0.4 -0.3
v -0.9 0.6 -0.3
v 0.9 0.4 -0.3
v 0.9 0.5 -0.3
v 1 0.4 -0.3
v 1 0.5 -0.3
v -1.2 0.5 -0.5
v -1.2 0.6 -0.5
v -1.1 0.3 -0.5
v -1.1 0.4 -0.5
v -1.1 0.5 -0.5
v -1.1 0.6 -0.5
v -1 0.2 -0.5
v -1 0.3 -0.5
v -1 0.4 -0.5
v -0.9 0.1 -0.5
v -0.9 0.2 -0.5
v -0.9 0.3 -0.5
v -0.9 0.4 -0.5
v -0.8 0 -0.5
v -0.8 0.1 -0.5
v -0.8 0.2 -0.5
v -0.8 0.3 -0.5
v -0.7 0.1 -0.5
v -0.7 0.2 -0.5
v 0.6 0.1 -0.5
v 0.6 0.2 -0.5
v 0.7 0 -0.5
v 0.7 0.1 -0.5
v 0.7 0.2 -0.5
v 0.7 0.3 -0.5
v 0.8 0.1 -0.5
v 0.8 0.2 -0.5
v 0.8 0.3 -0.5
v 0.8 0.4 -0.5
v 0.9 0.2 -0.5
v 0.9 0.3 -0.5
v 0.9 0.4 -0.5
v 1 0.3 -0.5
v 1 0.4 -0.5
v 1 0.5 -0.5
v 1 0.6 -0.5
v 1.1 0.5 -0.5
v 1.1 0.6 -0.5
v -1.1 0.4 -0.6
v -1.1 0.6 -0.6
v -1 0.4 -0.6
v -1 0.5 -0.6
v -0.9 0.5 -0.6
v -0.9 0.6 -0.6
v 0.9 0.4 -0.6
v 0.9 0.6 -0.6
v 1 0.4 -0.6
v 1 0.6 -0.6
v -0.8 0 0.5
v 0.7 0 0.5
v -0.8 0 0.4
v -0.7 0 0.4
v 0.6 0 0.4
v 0.7 0 0.4
v -0.8 0 -0.4
v -0.7 0 -0.4
v 0.6 0 -0.4
v 0.7 0 -0.4
v -0.8 0 -0.5
v 0.7 0 -0.5
v -0.9 0.1 0.5
v -0.8 0.1 0.5
v 0.7 0.1 0.5
v 0.8 0.1 0.5
v -0.9 0.1 0.4
v -0.8 0.1 0.4
v 0.7 0.1 0.4
v 0.8 0.1 0.4
v -0.9 0.1 -0.4
v -0.8 0.1 -0.4
v 0.7 0.1 -0.4
v 0.8 0.1 -0.4
v -0.9 0.1 -0.5
v -0.8 0.1 -0.5
v 0.7 0.1 -0.5
v 0.8 0.1 -0.5
v -1 0.2 0.5
v -0.9 0.2 0.5
v 0.8 0.2 0.5
v 0.9 0.2 0.5
v -1 0.2 0.4
v -0.9 0.2 0.4
v 0.8 0.2 0.4
v 0.9 0.2 0.4
v -1 0.2 -0.4
v -0.9 0.2 -0.4
v 0.8 0.2 -0.4
v 0.9 0.2 -0.4
v -1 0.2 -0.5
v -0.9 0.2 -0.5
v 0.8 0.2 -0.5
v 0.9 0.2 -0.5
v -1.1 0.3 0.5
v -1 0.3 0.5
v 0.9 0.3 0.5
v 1 0.3 0.5
v -1.1 0.3 0.4
v -1 0.3 0.4
v 0.9 0.3 0.4
v 1 0.3 0.4
v -1.1 0.3 -0.4
v -1 0.3 -0.4
v 0.9 0.3 -0.4
v 1 0.3 -0.4
v -1.1 0.3 -0.5
v -1 0.3 -0.5
v 0.9 0.3 -0.5
v 1 0.3 -0.5
v -1.1 0.4 0.6
v -1 0.4 0.6
v 0.9 0.4 0.6
v 1 0.4 0.6
v -1.1 0.4 0.5
v -1 0.4 0.5
v 0.9 0.4 0.5
v 1 0.4 0.5
v -1 0.4 0.3
v -0.9 0.4 0.3
v 0.9 0.4 0.3
v 1 0.4 0.3
v -1 0.4 -0.3
v -0.9 0.4 -0.3
v 0.9 0.4 -0.3
v 1 0.4 -0.3
v -1.1 0.4 -0.5
v -1 0.4 -0.5
v 0.9 0.4 -0.5
v 1 0.4 -0.5
v -1.1 0.4 -0.6
v -1 0.4 -0.6
v 0.9 0.4 -0.6
v 1 0.4 -0.6
v -1 0.5 0.6
v -0.9 0.5 0.6
v -1.2 0.5 0.5
v -1.1 0.5 0.5
v -1 0.5 0.5
v -0.9 0.5 0.5
v 1 0.5 0.5
v 1.1 0.5 0.5
v -1.2 0.5 0.4
v -1.1 0.5 0.4
v -1 0.5 0.4
v 0.9 0.5 0.4
v 1 0.5 0.4
v 1.1 0.5 0.4
v -1 0.5 0.3
v 0.9 0.5 0.3
v 1 0.5 0.3
v -1 0.5 -0.3
v 0.9 0.5 -0.3
v 1 0.5 -0.3
v -1.2 0.5 -0.4
v -1.1 0.5 -0.4
v -1 0.5 -0.4
v 0.9 0.5 -0.4
v 1 0.5 -0.4
v 1.1 0.5 -0.4
v -1.2 0.5 -0.5
v -1.1 0.5 -0.5
v -1 0.5 -0.5
v -0.9 0.5 -0.5
v 1 0.5 -0.5
v 1.1 0.5 -0.5
v -1 0.5 -0.6
v -0.9 0.5 -0.6
v -0.7 0.1 0.5
v 0.6 0.1 0.5
v -0.7 0.1 0.4
v 0.6 0.1 0.4
v -0.7 0.1 -0.4
v 0.6 0.1 -0.4
v -0.7 0.1 -0.5
v 0.6 0.1 -0.5
v -0.8 0.2 0.5
v -0.7 0.2 0.5
v 0.6 0.2 0.5
v 0.7 0.2 0.5
v -0.8 0.2 0.4
v -0.7 0.2 0.4
v 0.6 0.2 0.4
v 0.7 0.2 0.4
v -0.8 0.2 -0.4
v -0.7 0.2 -0.4
v 0.6 0.2 -0.4
v 0.7 0.2 -0.4
v -0.8 0.2 -0.5
v -0.7 0.2 -0.5
v 0.6 0.2 -0.5
v 0.7 0.2 -0.5
v -0.9 0.3 0.5
v -0.8 0.3 0.5
v 0.7 0.3 0.5
v 0.8 0.3 0.5
v -0.9 0.3 0.4
v -0.8 0.3 0.4
v 0.7 0.3 0.4
v 0.8 0.3 0.4
v -0.9 0.3 -0.4
v -0.8 0.3 -0.4
v 0.7 0.3 -0.4
v 0.8 0.3 -0.4
v -0.9 0.3 -0.5
v -0.8 0.3 -0.5
v 0.7 0.3 -0.5
v 0.8 0.3 -0.5
v -1 0.4 0.5
v -0.9 0.4 0.5
v 0.8 0.4 0.5
v 0.9 0.4 0.5
v -1 0.4 0.4
v -0.9 0.4 0.4
v 0.8 0.4 0.4
v 0.9 0.4 0.4
v -1 0.4 -0.4
v -0.9 0.4 -0.4
v 0.8 0.4 -0.4
v 0.9 0.4 -0.4
v -1 0.4 -0.5
v -0.9 0.4 -0.5
v 0.8 0.4 -0.5
v 0.9 0.4 -0.5
v -1.1 0.6 0.6
v -0.9 0.6 0.6
v 0.9 0.6 0.6
v 1 0.6 0.6
v -1.2 0.6 0.5
v -1.1 0.6 0.5
v -1 0.6 0.5
v -0.9 0.6 0.5
v 1 0.6 0.5
v 1.1 0.6 0.5
v -1.2 0.6 0.4
v -1.1 0.6 0.4
v 1 0.6 0.4
v 1.1 0.6 0.4
v -1 0.6 0.3
v -0.9 0.6 0.3
v -1 0.6 0.1
v -0.9 0.6 0.1
v 0.9 0.6 0.1
v 1 0.6 0.1
v -1 0.6 -0.1
v -0.9 0.6 -0.1
v 0.9 0.6 -0.1
v 1 0.6 -0.1
v -1 0.6 -0.3
v -0.9 0.6 -0.3
v -1.2 0.6 -0.4
v -1.1 0.6 -0.4
v 1 0.6 -0.4
v 1.1 0.6 -0.4
v -1.2 0.6 -0.5
v -1.1 0.6 -0.5
v -1 0.6 -0.5
v -0.9 0.6 -0.5
v 1 0.6 -0.5
v 1.1 0.6 -0.5
v -1.1 0.6 -0.6
v -0.9 0.6 -0.6
v 0.9 0.6 -0.6
v 1 0.6 -0.6

# faces
f 5/4/1 2/4/1 1/4/1
f 6/4/1 2/4/1 5/4/1
f 7/4/1 4/4/1 3/4/1
f 8/4/1 4/4/1 7/4/1
f 14/3/1 10/3/1 9/3/1
f 15/3/1 12/3/1 11/3/1
f 17/4/1 14/4/1 13/4/1
f 17/3/1 10/3/1 14/3/1
f 18/3/1 10/3/1 17/3/1
f 19/3/1 15/3/1 11/3/1
f 20/4/1 16/4/1 15/4/1
f 20/3/1 15/3/1 19/3/1
f 21/4/1 17/4/1 13/4/1
f 22/4/1 17/4/1 21/4/1
f 23/4/1 19/4/1 18/4/1
f 24/4/1 19/4/1 23/4/1
f 25/4/1 16/4/1 20/4/1
f 26/4/1 16/4/1 25/4/1
f 31/3/1 28/3/1 27/3/1
f 32/3/1 28/3/1 31/3/1
f 33/3/1 30/3/1 29/3/1
f 34/3/1 30/3/1 33/3/1
f 37/4/1 36/4/1 35/4/1
f 38/4/1 36/4/1 37/4/1
f 43/3/1 40/3/1 39/3/1
f 44/3/1 40/3/1 43/3/1
f 45/3/1 42/3/1 41/3/1
f 46/3/1 42/3/1 45/3/1
f 51/3/1 48/3/1 47/3/1
f 52/3/1 48/3/1 51/3/1
f 53/3/1 50/3/1 49/3/1
f 54/3/1 50/3/1 53/3/1
f 57/3/1 56/3/1 55/3/1
f 58/3/1 56/3/1 57/3/1
f 63/3/1 60/3/1 59/3/1
f 64/3/1 60/3/1 63/3/1
f 65/3/1 62/3/1 61/3/1
f 66/3/1 62/3/1 65/3/1
f 71/3/1 68/3/1 67/3/1
f 72/3/1 68/3/1 71/3/1
f 73/3/1 70/3/1 69/3/1
f 74/3/1 70/3/1 73/3/1
f 79/3/1 76/3/1 75/3/1
f 80/3/1 76/3/1 79/3/1
f 81/3/1 78/3/1 77/3/1
f 82/3/1 78/3/1 81/3/1
f 91/4/1 84/4/1 83/4/1
f 91/3/1 85/3/1 84/3/1
f 92/3/1 85/3/1 91/3/1
f 93/4/1 87/4/1 86/4/1
f 94/4/1 87/4/1 93/4/1
f 95/4/1 87/4/1 94/4/1
f 96/4/1 87/4/1 95/4/1
f 97/3/1 89/3/1 88/3/1
f 98/4/1 90/4/1 89/4/1
f 98/3/1 89/3/1 97/3/1
f 99/4/1 92/4/1 91/4/1
f 99/4/1 91/4/1 83/4/1
f 99/4/1 93/4/1 92/4/1
f 99/4/1 94/4/1 93/4/1
f 100/1/1 95/1/1 94/1/1
f 100/4/1 94/4/1 99/4/1
f 101/4/1 97/4/1 96/4/1
f 101/1/1 95/1/1 100/1/1
f 101/4/1 96/4/1 95/4/1
f 101/4/1 98/4/1 97/4/1
f 102/4/1 90/4/1 98/4/1
f 102/4/1 98/4/1 101/4/1
f 103/4/2 104/4/2 109/4/2
f 104/3/2 105/3/2 110/3/2
f 109/4/2 104/4/2 110/4/2
f 110/3/2 105/3/2 111/3/2
f 106/3/2 107/3/2 114/3/2
f 107/4/2 108/4/2 115/4/2
f 114/3/2 107/3/2 115/3/2
f 115/4/2 108/4/2 116/4/2
f 111/4/2 112/4/2 117/4/2
f 110/4/2 111/4/2 117/4/2
f 117/4/2 112/4/2 118/4/2
f 113/4/2 114/4/2 119/4/2
f 114/4/2 115/4/2 119/4/2
f 119/4/2 115/4/2 120/4/2
f 121/3/2 122/3/2 125/3/2
f 125/3/2 122/3/2 126/3/2
f 123/3/2 124/3/2 129/3/2
f 129/3/2 124/3/2 130/3/2
f 127/4/2 128/4/2 133/4/2
f 133/4/2 128/4/2 134/4/2
f 131/4/2 132/4/2 137/4/2
f 137/4/2 132/4/2 138/4/2
f 127/4/2 133/4/2 139/4/2
f 133/2/2 134/2/2 140/2/2
f 139/4/2 133/4/2 140/4/2
f 134/4/2 128/4/2 141/4/2
f 140/2/2 134/2/2 141/2/2
f 141/4/2 128/4/2 142/4/2
f 135/4/2 136/4/2 143/4/2
f 143/4/2 136/4/2 144/4/2
f 145/3/2 146/3/2 149/3/2
f 149/3/2 146/3/2 150/3/2
f 147/3/2 148/3/2 151/3/2
f 151/3/2 148/3/2 152/3/2
f 153/3/2 154/3/2 157/3/2
f 157/3/2 154/3/2 158/3/2
f 155/3/2 156/3/2 159/3/2
f 159/3/2 156/3/2 160/3/2
f 161/3/2 162/3/2 163/3/2
f 163/3/2 162/3/2 164/3/2
f 165/3/2 166/3/2 169/3/2
f 169/3/2 166/3/2 170/3/2
f 167/3/2 168/3/2 171/3/2
f 171/3/2 168/3/2 172/3/2
f 173/3/2 174/3/2 177/3/2
f 177/3/2 174/3/2 178/3/2
f 175/3/2 176/3/2 179/3/2
f 179/3/2 176/3/2 180/3/2
f 181/3/2 182/3/2 185/3/2
f 185/3/2 182/3/2 186/3/2
f 183/3/2 184/3/2 187/3/2
f 187/3/2 184/3/2 188/3/2
f 189/3/2 190/3/2 194/3/2
f 191/3/2 192/3/2 197/3/2
f 194/3/2 190/3/2 199/3/2
f 193/4/2 194/4/2 199/4/2
f 199/3/2 190/3/2 200/3/2
f 195/4/2 196/4/2 201/4/2
f 201/4/2 196/4/2 202/4/2
f 202/4/2 196/4/2 203/4/2
f 203/4/2 196/4/2 204/4/2
f 191/3/2 197/3/2 205/3/2
f 197/4/2 198/4/2 206/4/2
f 205/3/2 197/3/2 206/3/2
f 193/4/2 199/4/2 207/4/2
f 207/4/2 199/4/2 208/4/2
f 200/4/2 201/4/2 209/4/2
f 201/4/2 202/4/2 209/4/2
f 202/1/2 203/1/2 210/1/2
f 209/4/2 202/4/2 210/4/2
f 204/4/2 205/4/2 211/4/2
f 210/1/2 203/1/2 211/1/2
f 203/4/2 204/4/2 211/4/2
f 211/4/2 205/4/2 212/4/2
f 206/4/2 198/4/2 213/4/2
f 213/4/2 198/4/2 214/4/2
f 215/4/2 216/4/2 219/4/2
f 219/4/2 216/4/2 220/4/2
f 217/4/2 218/4/2 221/4/2
f 221/4/2 218/4/2 222/4/2
f 225/4/3 224/4/3 223/4/3
f 226/4/3 224/4/3 225/4/3
f 227/4/3 224/4/3 226/4/3
f 228/4/3 224/4/3 227/4/3
f 231/4/3 230/4/3 229/4/3
f 232/4/3 230/4/3 231/4/3
f 237/4/3 234/4/3 233/4/3
f 238/4/3 234/4/3 237/4/3
f 240/3/3 236/3/3 235/3/3
f 241/3/3 236/3/3 240/3/3
f 243/3/3 240/3/3 239/3/3
f 243/3/3 241/3/3 240/3/3
f 244/3/3 241/3/3 243/3/3
f 245/3/3 241/3/3 244/3/3
f 247/3/3 243/3/3 242/3/3
f 247/3/3 244/3/3 243/3/3
f 248/3/3 244/3/3 247/3/3
f 249/3/3 244/3/3 248/3/3
f 250/3/3 247/3/3 246/3/3
f 250/3/3 248/3/3 247/3/3
f 251/3/3 248/3/3 250/3/3
f 252/3/3 250/3/3 246/3/3
f 254/3/3 252/3/3 246/3/3
f 254/3/3 253/3/3 252/3/3
f 255/3/3 253/3/3 254/3/3
f 256/3/3 253/3/3 255/3/3
f 258/3/3 256/3/3 255/3/3
f 258/3/3 257/3/3 256/3/3
f 259/3/3 257/3/3 258/3/3
f 260/3/3 257/3/3 259/3/3
f 262/3/3 260/3/3 259/3/3
f 262/3/3 261/3/3 260/3/3
f 263/3/3 261/3/3 262/3/3
f 264/3/3 261/3/3 263/3/3
f 265/3/3 264/3/3 263/3/3
f 266/3/3 264/3/3 265/3/3
f 269/4/3 268/4/3 267/4/3
f 270/4/3 268/4/3 269/4/3
f 274/4/3 272/4/3 271/4/3
f 274/4/3 273/4/3 272/4/3
f 275/4/3 273/4/3 274/4/3
f 278/4/3 277/4/3 276/4/3
f 279/4/3 277/4/3 278/4/3
f 283/4/3 281/4/3 280/4/3
f 284/4/3 281/4/3 283/4/3
f 286/3/3 283/3/3 282/3/3
f 287/3/3 283/3/3 286/3/3
f 288/3/3 283/3/3 287/3/3
f 290/3/3 286/3/3 285/3/3
f 290/3/3 287/3/3 286/3/3
f 291/3/3 287/3/3 290/3/3
f 292/3/3 287/3/3 291/3/3
f 294/3/3 290/3/3 289/3/3
f 294/3/3 291/3/3 290/3/3
f 295/3/3 291/3/3 294/3/3
f 296/3/3 291/3/3 295/3/3
f 297/3/3 294/3/3 293/3/3
f 297/3/3 295/3/3 294/3/3
f 298/3/3 295/3/3 297/3/3
f 299/3/3 295/3/3 298/3/3
f 303/3/3 301/3/3 300/3/3
f 303/3/3 302/3/3 301/3/3
f 304/3/3 302/3/3 303/3/3
f 305/3/3 302/3/3 304/3/3
f 307/3/3 305/3/3 304/3/3
f 307/3/3 306/3/3 305/3/3
f 308/3/3 306/3/3 307/3/3
f 309/3/3 306/3/3 308/3/3
f 311/3/3 309/3/3 308/3/3
f 311/3/3 310/3/3 309/3/3
f 312/3/3 310/3/3 311/3/3
f 313/3/3 310/3/3 312/3/3
f 315/3/3 313/3/3 312/3/3
f 315/3/3 314/3/3 313/3/3
f 316/3/3 314/3/3 315/3/3
f 318/4/3 317/4/3 316/4/3
f 319/4/3 317/4/3 318/4/3
f 322/4/3 321/4/3 320/4/3
f 323/4/3 321/4/3 322/4/3
f 324/4/4 325/4/4 326/4/4
f 326/4/4 325/4/4 327/4/4
f 328/4/4 329/4/4 331/4/4
f 331/4/4 329/4/4 332/4/4
f 330/3/4 331/3/4 334/3/4
f 334/3/4 331/3/4 335/3/4
f 335/3/4 331/3/4 336/3/4
f 333/3/4 334/3/4 338/3/4
f 334/3/4 335/3/4 338/3/4
f 338/3/4 335/3/4 339/3/4
f 339/3/4 335/3/4 340/3/4
f 337/3/4 338/3/4 342/3/4
f 338/3/4 339/3/4 342/3/4
f 342/3/4 339/3/4 343/3/4
f 343/3/4 339/3/4 344/3/4
f 341/3/4 342/3/4 345/3/4
f 342/3/4 343/3/4 345/3/4
f 345/3/4 343/3/4 346/3/4
f 346/3/4 343/3/4 347/3/4
f 348/3/4 349/3/4 351/3/4
f 349/3/4 350/3/4 351/3/4
f 351/3/4 350/3/4 352/3/4
f 352/3/4 350/3/4 353/3/4
f 352/3/4 353/3/4 355/3/4
f 353/3/4 354/3/4 355/3/4
f 355/3/4 354/3/4 356/3/4
f 356/3/4 354/3/4 357/3/4
f 356/3/4 357/3/4 359/3/4
f 357/3/4 358/3/4 359/3/4
f 359/3/4 358/3/4 360/3/4
f 360/3/4 358/3/4 361/3/4
f 360/3/4 361/3/4 363/3/4
f 361/3/4 362/3/4 363/3/4
f 363/3/4 362/3/4 364/3/4
f 364/4/4 365/4/4 366/4/4
f 366/4/4 365/4/4 367/4/4
f 368/4/4 369/4/4 371/4/4
f 369/4/4 370/4/4 371/4/4
f 371/4/4 370/4/4 372/4/4
f 373/4/4 374/4/4 375/4/4
f 375/4/4 374/4/4 376/4/4
f 377/4/4 378/4/4 381/4/4
f 381/4/4 378/4/4 382/4/4
f 379/3/4 380/3/4 384/3/4
f 384/3/4 380/3/4 385/3/4
f 383/3/4 384/3/4 387/3/4
f 384/3/4 385/3/4 387/3/4
f 387/3/4 385/3/4 388/3/4
f 388/3/4 385/3/4 389/3/4
f 386/3/4 387/3/4 391/3/4
f 387/3/4 388/3/4 391/3/4
f 391/3/4 388/3/4 392/3/4
f 392/3/4 388/3/4 393/3/4
f 390/3/4 391/3/4 394/3/4
f 391/3/4 392/3/4 394/3/4
f 394/3/4 392/3/4 395/3/4
f 390/3/4 394/3/4 396/3/4
f 390/3/4 396/3/4 398/3/4
f 396/3/4 397/3/4 398/3/4
f 398/3/4 397/3/4 399/3/4
f 399/3/4 397/3/4 400/3/4
f 399/3/4 400/3/4 402/3/4
f 400/3/4 401/3/4 402/3/4
f 402/3/4 401/3/4 403/3/4
f 403/3/4 401/3/4 404/3/4
f 403/3/4 404/3/4 406/3/4
f 404/3/4 405/3/4 406/3/4
f 406/3/4 405/3/4 407/3/4
f 407/3/4 405/3/4 408/3/4
f 407/3/4 408/3/4 409/3/4
f 409/3/4 408/3/4 410/3/4
f 411/4/4 412/4/4 413/4/4
f 413/4/4 412/4/4 414/4/4
f 415/4/4 416/4/4 417/4/4
f 417/4/4 416/4/4 418/4/4
f 418/4/4 416/4/4 419/4/4
f 419/4/4 416/4/4 420/4/4
f 421/4/4 422/4/4 423/4/4
f 423/4/4 422/4/4 424/4/4
f 427/3/5 426/3/5 425/3/5
f 428/3/5 426/3/5 427/3/5
f 429/3/5 426/3/5 428/3/5
f 430/3/5 426/3/5 429/3/5
f 432/3/5 429/3/5 428/3/5
f 433/3/5 429/3/5 432/3/5
f 435/3/5 432/3/5 431/3/5
f 435/3/5 434/3/5 433/3/5
f 435/3/5 433/3/5 432/3/5
f 436/3/5 434/3/5 435/3/5
f 441/3/5 438/3/5 437/3/5
f 442/3/5 438/3/5 441/3/5
f 443/3/5 440/3/5 439/3/5
f 444/3/5 440/3/5 443/3/5
f 449/3/5 446/3/5 445/3/5
f 450/3/5 446/3/5 449/3/5
f 451/3/5 448/3/5 447/3/5
f 452/3/5 448/3/5 451/3/5
f 457/3/5 454/3/5 453/3/5
f 458/3/5 454/3/5 457/3/5
f 459/3/5 456/3/5 455/3/5
f 460/3/5 456/3/5 459/3/5
f 465/3/5 462/3/5 461/3/5
f 466/3/5 462/3/5 465/3/5
f 467/3/5 464/3/5 463/3/5
f 468/3/5 464/3/5 467/3/5
f 473/3/5 470/3/5 469/3/5
f 474/3/5 470/3/5 473/3/5
f 475/3/5 472/3/5 471/3/5
f 476/3/5 472/3/5 475/3/5
f 481/3/5 478/3/5 477/3/5
f 482/3/5 478/3/5 481/3/5
f 483/3/5 480/3/5 479/3/5
f 484/3/5 480/3/5 483/3/5
f 489/4/5 486/4/5 485/4/5
f 490/4/5 486/4/5 489/4/5
f 491/4/5 488/4/5 487/4/5
f 492/4/5 488/4/5 491/4/5
f 497/4/5 494/4/5 493/4/5
f 498/4/5 494/4/5 497/4/5
f 499/4/5 496/4/5 495/4/5
f 500/4/5 496/4/5 499/4/5
f 505/4/5 502/4/5 501/4/5
f 506/4/5 502/4/5 505/4/5
f 507/4/5 504/4/5 503/4/5
f 508/4/5 504/4/5 507/4/5
f 513/4/5 510/4/5 509/4/5
f 514/4/5 510/4/5 513/4/5
f 517/4/5 512/4/5 511/4/5
f 518/4/5 512/4/5 517/4/5
f 521/4/5 516/4/5 515/4/5
f 522/4/5 516/4/5 521/4/5
f 523/4/5 519/4/5 518/4/5
f 524/4/5 521/4/5 520/4/5
f 525/4/5 521/4/5 524/4/5
f 526/4/5 523/4/5 518/4/5
f 530/4/5 526/4/5 518/4/5
f 531/4/5 526/4/5 530/4/5
f 532/4/5 528/4/5 527/4/5
f 533/4/5 528/4/5 532/4/5
f 535/4/5 530/4/5 529/4/5
f 536/4/5 530/4/5 535/4/5
f 539/4/5 534/4/5 533/4/5
f 540/4/5 534/4/5 539/4/5
f 541/4/5 538/4/5 537/4/5
f 542/4/5 538/4/5 541/4/5
f 543/3/6 544/3/6 545/3/6
f 545/3/6 544/3/6 546/3/6
f 545/3/6 546/3/6 547/3/6
f 547/3/6 546/3/6 548/3/6
f 547/3/6 548/3/6 549/3/6
f 549/3/6 548/3/6 550/3/6
f 551/3/6 552/3/6 555/3/6
f 555/3/6 552/3/6 556/3/6
f 553/3/6 554/3/6 557/3/6
f 557/3/6 554/3/6 558/3/6
f 559/3/6 560/3/6 563/3/6
f 563/3/6 560/3/6 564/3/6
f 561/3/6 562/3/6 565/3/6
f 565/3/6 562/3/6 566/3/6
f 567/3/6 568/3/6 571/3/6
f 571/3/6 568/3/6 572/3/6
f 569/3/6 570/3/6 573/3/6
f 573/3/6 570/3/6 574/3/6
f 575/3/6 576/3/6 579/3/6
f 579/3/6 576/3/6 580/3/6
f 577/3/6 578/3/6 581/3/6
f 581/3/6 578/3/6 582/3/6
f 583/3/6 584/3/6 587/3/6
f 587/3/6 584/3/6 588/3/6
f 585/3/6 586/3/6 589/3/6
f 589/3/6 586/3/6 590/3/6
f 591/3/6 592/3/6 595/3/6
f 595/3/6 592/3/6 596/3/6
f 593/3/6 594/3/6 597/3/6
f 597/3/6 594/3/6 598/3/6
f 599/4/6 600/4/6 604/4/6
f 604/4/6 600/4/6 605/4/6
f 605/4/6 600/4/6 606/4/6
f 601/4/6 602/4/6 607/4/6
f 603/4/6 604/4/6 609/4/6
f 604/4/6 605/4/6 609/4/6
f 609/4/6 605/4/6 610/4/6
f 607/4/6 608/4/6 611/4/6
f 601/4/6 607/4/6 611/4/6
f 611/4/6 608/4/6 612/4/6
f 610/4/6 605/4/6 613/4/6
f 610/4/6 613/4/6 615/4/6
f 613/4/6 614/4/6 615/4/6
f 615/4/6 614/4/6 616/4/6
f 601/4/6 611/4/6 617/4/6
f 617/4/6 611/4/6 618/4/6
f 615/2/6 616/2/6 619/2/6
f 610/4/6 615/4/6 619/4/6
f 619/2/6 616/2/6 620/2/6
f 617/1/6 618/1/6 621/1/6
f 621/1/6 618/1/6 622/1/6
f 619/4/6 620/4/6 623/4/6
f 610/4/6 619/4/6 623/4/6
f 623/4/6 620/4/6 624/4/6
f 610/4/6 623/4/6 626/4/6
f 621/4/6 622/4/6 627/4/6
f 625/4/6 626/4/6 629/4/6
f 626/4/6 623/4/6 630/4/6
f 629/4/6 626/4/6 630/4/6
f 630/4/6 623/4/6 631/4/6
f 621/4/6 627/4/6 633/4/6
f 627/4/6 628/4/6 633/4/6
f 633/4/6 628/4/6 634/4/6
f 631/4/6 632/4/6 635/4/6
f 630/4/6 631/4/6 635/4/6
f 635/4/6 632/4/6 636/4/6
f 621/4/6 633/4/6 637/4/6
f 637/4/6 633/4/6 638/4/6
