# MagicaVoxel @ Ephtracy

# group
o 

# material
mtllib water.mtl
usemtl palette

# normals
vn -1 0 0
vn 1 0 0
vn 0 0 1
vn 0 0 -1
vn 0 -1 0
vn 0 1 0

# texcoords
vt 0.755859 0.5
vt 0.771484 0.5
vt 0.791016 0.5

# verts
v -0.8 0 0.8
v -0.8 0 -0.8
v -0.8 1.5 0.7
v -0.8 1.5 -0.3
v -0.8 1.6 0.8
v -0.8 1.6 0.7
v -0.8 1.6 -0.3
v -0.8 1.6 -0.8
v 0.8 0 0.8
v 0.8 0 -0.8
v 0.8 1.5 0.8
v 0.8 1.5 0.7
v 0.8 1.5 0.5
v 0.8 1.5 -0.2
v 0.8 1.6 0.8
v 0.8 1.6 0.7
v 0.8 1.6 0.5
v 0.8 1.6 -0.2
v 0.8 1.6 -0.8
v -0.8 0 0.8
v -0.8 1.6 0.8
v -0.4 1.5 0.8
v -0.4 1.6 0.8
v -0.3 1.5 0.8
v -0.3 1.6 0.8
v 0.3 1.5 0.8
v 0.3 1.6 0.8
v 0.4 1.5 0.8
v 0.4 1.6 0.8
v 0.7 1.5 0.8
v 0.7 1.6 0.8
v 0.8 0 0.8
v 0.8 1.5 0.8
v 0.8 1.6 0.8
v -0.8 0 -0.8
v -0.8 1.6 -0.8
v -0.3 1.5 -0.8
v -0.3 1.6 -0.8
v -0.2 1.5 -0.8
v -0.2 1.6 -0.8
v 0.6 1.5 -0.8
v 0.6 1.6 -0.8
v 0.7 1.5 -0.8
v 0.7 1.6 -0.8
v 0.8 0 -0.8
v 0.8 1.6 -0.8
v -0.8 0 0.8
v 0.8 0 0.8
v -0.8 0 -0.8
v 0.8 0 -0.8
v -0.8 1.6 0.8
v -0.4 1.6 0.8
v -0.3 1.6 0.8
v 0.3 1.6 0.8
v 0.4 1.6 0.8
v 0.7 1.6 0.8
v 0.8 1.6 0.8
v -0.8 1.6 0.7
v -0.7 1.6 0.7
v 0.7 1.6 0.7
v 0.8 1.6 0.7
v -0.4 1.6 0.5
v -0.3 1.6 0.5
v -0.2 1.6 0.5
v -0.1 1.6 0.5
v 0.5 1.6 0.5
v 0.6 1.6 0.5
v 0.7 1.6 0.5
v 0.8 1.6 0.5
v 0.3 1.6 0.4
v 0.4 1.6 0.4
v -0.5 1.6 0.3
v -0.4 1.6 0.3
v -0.7 1.6 0.1
v -0.6 1.6 0.1
v 0 1.6 0.1
v 0.1 1.6 0.1
v -0.4 1.6 0
v -0.3 1.6 0
v -0.5 1.6 -0.1
v -0.4 1.6 -0.1
v -0.2 1.6 -0.2
v -0.1 1.6 -0.2
v 0.7 1.6 -0.2
v 0.8 1.6 -0.2
v -0.8 1.6 -0.3
v -0.7 1.6 -0.3
v 0.5 1.6 -0.3
v 0.6 1.6 -0.3
v 0 1.6 -0.4
v 0.1 1.6 -0.4
v 0.2 1.6 -0.4
v 0.3 1.6 -0.4
v -0.4 1.6 -0.5
v -0.3 1.6 -0.5
v -0.3 1.6 -0.6
v -0.2 1.6 -0.6
v 0.2 1.6 -0.6
v 0.3 1.6 -0.6
v 0.6 1.6 -0.6
v 0.7 1.6 -0.6
v -0.7 1.6 -0.7
v -0.6 1.6 -0.7
v -0.8 1.6 -0.8
v -0.3 1.6 -0.8
v -0.2 1.6 -0.8
v 0.6 1.6 -0.8
v 0.7 1.6 -0.8
v 0.8 1.6 -0.8

# faces
f 3/2/1 2/2/1 1/2/1
f 4/2/1 2/2/1 3/2/1
f 5/2/1 3/2/1 1/2/1
f 6/3/1 4/3/1 3/3/1
f 6/2/1 3/2/1 5/2/1
f 7/2/1 2/2/1 4/2/1
f 7/3/1 4/3/1 6/3/1
f 8/2/1 2/2/1 7/2/1
f 9/2/2 10/2/2 11/2/2
f 11/2/2 10/2/2 12/2/2
f 12/2/2 10/2/2 13/2/2
f 13/2/2 10/2/2 14/2/2
f 11/1/2 12/1/2 15/1/2
f 12/2/2 13/2/2 16/2/2
f 15/1/2 12/1/2 16/1/2
f 13/3/2 14/3/2 17/3/2
f 16/2/2 13/2/2 17/2/2
f 14/2/2 10/2/2 18/2/2
f 17/3/2 14/3/2 18/3/2
f 18/2/2 10/2/2 19/2/2
f 22/2/3 21/2/3 20/2/3
f 23/2/3 21/2/3 22/2/3
f 24/2/3 22/2/3 20/2/3
f 24/1/3 23/1/3 22/1/3
f 25/1/3 23/1/3 24/1/3
f 26/2/3 24/2/3 20/2/3
f 26/2/3 25/2/3 24/2/3
f 27/2/3 25/2/3 26/2/3
f 28/2/3 26/2/3 20/2/3
f 28/1/3 27/1/3 26/1/3
f 29/1/3 27/1/3 28/1/3
f 30/2/3 28/2/3 20/2/3
f 30/2/3 29/2/3 28/2/3
f 31/2/3 29/2/3 30/2/3
f 32/2/3 30/2/3 20/2/3
f 33/1/3 31/1/3 30/1/3
f 33/2/3 30/2/3 32/2/3
f 34/1/3 31/1/3 33/1/3
f 35/2/4 36/2/4 37/2/4
f 37/2/4 36/2/4 38/2/4
f 35/2/4 37/2/4 39/2/4
f 37/3/4 38/3/4 39/3/4
f 39/3/4 38/3/4 40/3/4
f 35/2/4 39/2/4 41/2/4
f 39/2/4 40/2/4 41/2/4
f 41/2/4 40/2/4 42/2/4
f 35/2/4 41/2/4 43/2/4
f 41/1/4 42/1/4 43/1/4
f 43/1/4 42/1/4 44/1/4
f 35/2/4 43/2/4 45/2/4
f 43/2/4 44/2/4 45/2/4
f 45/2/4 44/2/4 46/2/4
f 49/2/5 48/2/5 47/2/5
f 50/2/5 48/2/5 49/2/5
f 51/2/6 52/2/6 58/2/6
f 58/2/6 52/2/6 59/2/6
f 56/1/6 57/1/6 60/1/6
f 55/2/6 56/2/6 60/2/6
f 60/1/6 57/1/6 61/1/6
f 59/2/6 52/2/6 62/2/6
f 52/1/6 53/1/6 62/1/6
f 53/2/6 54/2/6 63/2/6
f 62/1/6 53/1/6 63/1/6
f 63/2/6 54/2/6 64/2/6
f 64/2/6 54/2/6 65/2/6
f 60/2/6 61/2/6 66/2/6
f 55/2/6 60/2/6 66/2/6
f 66/2/6 61/2/6 67/2/6
f 67/2/6 61/2/6 68/2/6
f 68/2/6 61/2/6 69/2/6
f 65/2/6 54/2/6 70/2/6
f 54/1/6 55/1/6 70/1/6
f 55/2/6 66/2/6 71/2/6
f 70/1/6 55/1/6 71/1/6
f 59/2/6 62/2/6 72/2/6
f 62/2/6 63/2/6 72/2/6
f 63/2/6 64/2/6 72/2/6
f 72/2/6 64/2/6 73/2/6
f 58/3/6 59/3/6 74/3/6
f 59/2/6 72/2/6 74/2/6
f 74/2/6 72/2/6 75/2/6
f 70/2/6 71/2/6 76/2/6
f 65/2/6 70/2/6 76/2/6
f 76/2/6 71/2/6 77/2/6
f 73/2/6 64/2/6 78/2/6
f 72/1/6 73/1/6 78/1/6
f 78/2/6 64/2/6 79/2/6
f 75/2/6 72/2/6 80/2/6
f 72/1/6 78/1/6 80/1/6
f 78/3/6 79/3/6 81/3/6
f 80/1/6 78/1/6 81/1/6
f 64/1/6 65/1/6 82/1/6
f 79/2/6 64/2/6 82/2/6
f 65/2/6 76/2/6 83/2/6
f 82/1/6 65/1/6 83/1/6
f 68/3/6 69/3/6 84/3/6
f 67/2/6 68/2/6 84/2/6
f 84/3/6 69/3/6 85/3/6
f 58/3/6 74/3/6 86/3/6
f 74/1/6 75/1/6 87/1/6
f 86/3/6 74/3/6 87/3/6
f 71/2/6 66/2/6 88/2/6
f 77/2/6 71/2/6 88/2/6
f 66/1/6 67/1/6 88/1/6
f 84/2/6 85/2/6 89/2/6
f 88/1/6 67/1/6 89/1/6
f 67/2/6 84/2/6 89/2/6
f 83/2/6 76/2/6 90/2/6
f 82/2/6 83/2/6 90/2/6
f 76/1/6 77/1/6 90/1/6
f 88/2/6 89/2/6 91/2/6
f 90/1/6 77/1/6 91/1/6
f 77/2/6 88/2/6 91/2/6
f 91/2/6 89/2/6 92/2/6
f 92/2/6 89/2/6 93/2/6
f 81/3/6 79/3/6 94/3/6
f 80/2/6 81/2/6 94/2/6
f 82/2/6 90/2/6 95/2/6
f 94/3/6 79/3/6 95/3/6
f 79/2/6 82/2/6 95/2/6
f 91/2/6 92/2/6 95/2/6
f 90/2/6 91/2/6 95/2/6
f 94/2/6 95/2/6 96/2/6
f 95/2/6 92/2/6 96/2/6
f 96/2/6 92/2/6 97/2/6
f 92/1/6 93/1/6 98/1/6
f 97/2/6 92/2/6 98/2/6
f 93/2/6 89/2/6 99/2/6
f 98/1/6 93/1/6 99/1/6
f 89/2/6 85/2/6 100/2/6
f 99/2/6 89/2/6 100/2/6
f 100/2/6 85/2/6 101/2/6
f 87/1/6 75/1/6 102/1/6
f 86/2/6 87/2/6 102/2/6
f 80/2/6 94/2/6 103/2/6
f 102/1/6 75/1/6 103/1/6
f 75/2/6 80/2/6 103/2/6
f 94/2/6 96/2/6 103/2/6
f 86/2/6 102/2/6 104/2/6
f 102/2/6 103/2/6 104/2/6
f 96/3/6 97/3/6 105/3/6
f 104/2/6 103/2/6 105/2/6
f 103/2/6 96/2/6 105/2/6
f 98/2/6 99/2/6 106/2/6
f 105/3/6 97/3/6 106/3/6
f 97/2/6 98/2/6 106/2/6
f 99/2/6 100/2/6 106/2/6
f 100/1/6 101/1/6 107/1/6
f 106/2/6 100/2/6 107/2/6
f 101/2/6 85/2/6 108/2/6
f 107/1/6 101/1/6 108/1/6
f 108/2/6 85/2/6 109/2/6
